<?xml version="1.0" standalone="no"?>
<!DOCTYPE svg PUBLIC "-//W3C//DTD SVG 20010904//EN"
 "http://www.w3.org/TR/2001/REC-SVG-20010904/DTD/svg10.dtd">
<svg version="1.0" xmlns="http://www.w3.org/2000/svg"
 width="505.000000pt" height="505.000000pt" viewBox="0 0 505.000000 505.000000"
 preserveAspectRatio="xMidYMid meet">
<metadata>
Created by potrace 1.14, written by Peter Selinger 2001-2017
</metadata>
<g transform="translate(0.000000,505.000000) scale(0.100000,-0.100000)"
fill="#000000" stroke="none">
<path d="M2471 4522 c3 -19 -2 -25 -11 -12 -6 10 -10 11 -10 3 0 -7 -12 -13
-26 -13 -17 0 -23 -4 -18 -12 5 -8 0 -7 -11 2 -10 8 -16 10 -12 3 5 -8 -1 -15
-17 -19 -26 -6 -50 2 -42 15 3 4 -1 8 -9 8 -8 0 -11 -5 -8 -11 4 -6 0 -5 -9 2
-8 7 -26 11 -39 8 -13 -2 -32 1 -43 6 -12 7 -16 7 -12 0 3 -6 2 -13 -4 -17 -5
-3 -10 -2 -10 4 0 10 -19 9 -37 -2 -7 -5 -17 -5 -23 -2 -5 3 -10 -2 -11 -12 0
-10 -3 -13 -6 -5 -2 6 -9 12 -14 12 -6 0 -7 -5 -3 -11 4 -7 1 -10 -7 -7 -8 3
-20 -2 -27 -11 -8 -9 -11 -10 -7 -4 4 8 1 11 -9 7 -9 -3 -14 -11 -13 -16 1 -6
-4 -13 -12 -16 -9 -3 -11 0 -7 9 4 8 0 5 -8 -5 -9 -11 -16 -16 -16 -10 0 5 -9
-6 -20 -23 -11 -18 -23 -33 -26 -33 -4 0 -1 8 7 18 7 9 -1 4 -17 -13 -17 -16
-28 -34 -26 -39 3 -5 -2 -6 -12 -3 -9 4 -14 3 -11 -2 3 -5 1 -12 -5 -16 -6 -4
-8 -11 -5 -16 3 -5 -2 -6 -11 -2 -10 4 -15 2 -11 -4 7 -11 -28 -44 -38 -35 -3
4 -3 -2 1 -12 5 -14 4 -17 -4 -12 -7 4 -12 1 -12 -9 0 -9 -4 -13 -10 -10 -9 6
-14 -8 -11 -27 0 -5 -6 -8 -14 -8 -8 0 -15 -7 -15 -15 0 -9 -7 -18 -15 -21 -8
-4 -12 -10 -9 -15 3 -5 0 -9 -6 -9 -6 0 -9 -4 -6 -9 3 -5 -1 -12 -10 -15 -8
-3 -12 -10 -9 -16 3 -5 -1 -10 -9 -10 -9 0 -15 -3 -15 -7 4 -22 -2 -33 -13
-27 -8 5 -7 0 2 -11 8 -10 11 -16 5 -13 -12 7 -37 -17 -28 -26 4 -3 -2 -13
-13 -22 -10 -8 -13 -12 -6 -9 11 6 11 3 0 -16 -7 -13 -20 -30 -28 -37 -13 -12
-13 -13 0 -7 8 4 6 -1 -4 -9 -11 -9 -14 -16 -7 -16 7 0 9 -5 6 -10 -4 -6 -10
-8 -15 -5 -4 3 -6 -3 -3 -14 3 -10 0 -22 -6 -25 -6 -4 -11 -16 -11 -27 0 -10
-9 -27 -19 -36 -11 -9 -17 -22 -14 -29 3 -8 0 -14 -6 -14 -6 0 -11 -5 -11 -11
0 -5 6 -7 13 -3 9 6 9 5 0 -8 -7 -8 -9 -19 -5 -23 4 -5 1 -4 -7 0 -11 6 -13 4
-8 -8 3 -9 3 -16 -1 -16 -19 3 -25 -2 -12 -11 11 -7 11 -10 2 -10 -8 0 -10 -5
-6 -12 5 -7 2 -9 -7 -6 -10 4 -15 -1 -15 -13 0 -14 3 -16 16 -6 8 6 7 2 -4
-10 -10 -13 -23 -20 -29 -16 -6 3 -7 1 -3 -5 4 -6 13 -9 21 -6 13 5 13 1 0
-30 -18 -43 -19 -49 -2 -41 6 4 3 -1 -7 -9 -13 -11 -15 -16 -6 -16 10 0 9 -5
-3 -18 -10 -10 -14 -21 -11 -24 3 -4 1 -15 -5 -26 -8 -15 -8 -22 2 -25 9 -4 9
-6 -1 -6 -8 -1 -10 -6 -6 -13 5 -9 2 -9 -9 1 -19 15 -24 2 -6 -16 8 -8 5 -15
-11 -26 -12 -8 -17 -18 -12 -21 6 -3 13 0 15 6 3 8 6 6 6 -4 1 -10 -2 -18 -6
-18 -5 0 -8 -22 -7 -50 0 -27 -3 -47 -8 -44 -5 3 -5 11 -1 17 3 7 -3 3 -15 -7
-12 -11 -22 -22 -22 -25 0 -3 5 0 12 7 9 9 14 7 23 -5 11 -14 9 -20 -11 -36
-13 -10 -21 -23 -18 -28 3 -6 -2 -20 -13 -32 -13 -16 -13 -18 -2 -9 15 11 17
9 15 -17 0 -16 -4 -27 -9 -24 -4 2 -4 9 -1 15 4 7 2 8 -4 4 -12 -7 -5 -36 8
-36 4 0 6 -8 5 -17 -4 -32 -17 -63 -26 -63 -5 0 -9 -5 -9 -11 0 -5 6 -7 13 -3
9 6 9 5 0 -8 -7 -8 -10 -18 -6 -21 3 -4 1 -7 -4 -7 -6 0 -10 -8 -9 -17 2 -10
0 -20 -4 -23 -5 -3 -10 -14 -12 -25 -1 -11 -7 -24 -13 -28 -6 -5 -4 -7 5 -4 8
2 14 10 12 16 -1 6 2 11 8 11 5 0 10 -2 10 -5 0 -10 -40 -70 -40 -60 0 13 -20
-17 -20 -30 0 -5 5 -3 10 5 7 12 9 10 7 -8 -1 -17 -6 -21 -22 -16 -12 3 -15 2
-8 -3 13 -9 14 -55 1 -47 -4 3 -8 -5 -8 -16 0 -16 -4 -20 -15 -16 -13 4 -14 2
-5 -14 8 -14 8 -20 0 -20 -6 0 -8 -4 -5 -10 3 -5 0 -7 -8 -4 -8 3 -14 -1 -14
-10 0 -8 5 -13 11 -10 6 3 2 -2 -8 -10 -20 -16 -20 -16 0 -31 16 -13 17 -14 1
-9 -10 4 -17 3 -16 -2 4 -21 -2 -33 -18 -37 -17 -4 -17 -5 0 -6 19 -1 23 -16
7 -26 -6 -4 -4 -17 5 -35 15 -28 14 -75 -1 -89 -4 -3 -4 2 -1 11 3 10 2 20 -3
23 -6 4 -10 -1 -10 -9 0 -9 -5 -16 -11 -16 -5 0 -7 6 -3 13 4 6 -2 3 -14 -7
-24 -20 -31 -36 -9 -17 8 6 17 8 20 4 4 -3 -1 -12 -11 -20 -16 -14 -16 -14 3
-8 11 3 16 3 12 -1 -4 -4 3 -19 15 -33 20 -22 20 -23 2 -8 -11 9 -24 14 -29
10 -4 -5 -5 -1 0 7 7 12 6 13 -6 2 -12 -11 -12 -14 0 -21 10 -7 10 -13 2 -29
-8 -15 -8 -23 1 -28 7 -4 8 -3 4 4 -5 8 -2 10 8 6 13 -5 12 -9 -7 -26 -16 -14
-17 -18 -5 -14 12 4 15 1 11 -11 -4 -11 -2 -14 5 -9 7 4 12 2 12 -3 0 -11 -19
-15 -50 -12 -12 1 -11 -1 2 -9 15 -9 16 -15 5 -38 -22 -48 -40 -60 -107 -69
-19 -2 -46 -6 -60 -8 -14 -2 -26 -4 -27 -5 -2 -1 -6 -3 -10 -4 -5 -1 -19 -8
-33 -16 -14 -7 -26 -12 -28 -11 -7 5 -87 -72 -84 -81 1 -4 -2 -8 -8 -8 -5 0
-10 -4 -10 -10 0 -5 -8 -18 -17 -28 -10 -10 -25 -29 -33 -42 -8 -12 -23 -33
-32 -45 -10 -13 -18 -28 -18 -33 0 -5 -7 -12 -15 -16 -8 -3 -15 -12 -15 -19 0
-8 -9 -24 -20 -37 -11 -12 -17 -27 -13 -33 3 -5 1 -7 -4 -4 -12 7 -36 -50 -28
-63 3 -5 1 -11 -4 -14 -4 -3 -12 -29 -16 -58 -8 -55 -11 -66 -15 -70 -1 -2 -4
-16 -5 -33 -2 -16 -6 -41 -9 -55 -8 -36 -15 -70 -22 -110 -3 -19 -7 -39 -8
-45 -7 -26 -20 -92 -22 -110 -1 -11 -3 -20 -4 -20 -2 0 -10 -37 -14 -70 -3
-16 -5 -30 -6 -30 -1 0 -5 -21 -14 -88 -3 -21 -8 -42 -11 -47 -3 -6 -1 -10 6
-10 8 0 8 -4 1 -13 -12 -14 -22 -54 -27 -112 -1 -22 -4 -40 -5 -40 -1 0 -3
-13 -5 -30 -3 -26 -11 -66 -21 -115 -2 -8 -7 -37 -10 -65 -7 -54 -12 -80 -14
-80 -2 0 -6 -22 -14 -70 -6 -35 -17 -95 -22 -117 -1 -5 -2 -9 -4 -10 -1 -2 -2
-22 -3 -46 l-2 -42 2169 2 2170 3 1 80 c1 44 4 86 8 92 4 6 3 14 -3 18 -6 4
-7 11 -4 17 11 18 13 68 3 74 -5 3 -6 11 -2 17 7 11 12 51 15 120 1 15 5 27 9
27 4 0 5 9 2 19 -3 10 3 32 11 47 14 25 16 25 10 5 -4 -15 -2 -21 4 -17 14 9
32 -22 32 -55 0 -6 6 -9 13 -6 8 3 18 -7 26 -24 7 -15 20 -30 29 -33 9 -3 23
-19 30 -36 13 -29 32 -41 32 -20 0 6 -4 10 -10 10 -5 0 -10 6 -10 14 0 8 -10
22 -22 31 -13 8 -23 19 -23 23 0 4 -3 6 -7 5 -8 -3 -12 12 -9 34 1 7 -7 10
-18 8 -12 -2 -24 1 -27 7 -4 6 -2 8 4 4 6 -3 13 -2 17 4 3 5 2 10 -3 10 -5 0
-15 12 -23 28 -7 15 -23 41 -34 57 -15 21 -20 45 -20 83 1 30 -3 52 -9 52 -7
0 -8 3 -1 8 13 9 15 42 3 42 -6 0 -5 6 2 15 7 8 8 15 3 15 -6 0 -9 15 -9 32 2
44 -11 130 -26 165 -6 15 -12 30 -13 33 -5 20 -19 60 -30 85 -7 17 -23 57 -35
90 -12 33 -32 80 -44 105 -25 50 -25 51 -33 80 -3 11 -9 20 -14 20 -5 0 -8 3
-7 8 2 10 -24 65 -35 73 -5 3 -9 9 -8 12 1 16 -22 67 -30 67 -4 0 -6 6 -3 14
3 7 -2 20 -10 29 -9 9 -16 22 -16 30 0 8 -7 20 -15 27 -9 7 -14 19 -11 26 6
15 -18 37 -29 26 -5 -4 -5 -2 -2 4 4 6 0 20 -7 30 -11 14 -12 23 -3 34 6 8 7
12 3 8 -5 -4 -17 2 -27 14 -22 25 -25 35 -6 19 10 -8 14 -7 14 4 0 7 -3 14 -6
13 -18 -2 -31 3 -31 13 0 5 4 7 10 4 6 -3 7 1 4 10 -4 10 -10 12 -18 6 -8 -7
-12 -4 -12 9 0 10 3 17 6 15 4 -2 7 2 7 9 0 9 -7 12 -16 8 -13 -5 -14 -3 -3
10 11 13 10 16 -5 14 -14 -1 -17 6 -16 37 1 31 -2 37 -18 37 -17 0 -19 4 -13
22 6 21 5 22 -11 8 -17 -14 -17 -14 -6 8 7 14 8 22 1 22 -5 0 -10 -4 -10 -10
0 -5 -6 -10 -12 -10 -7 1 -2 10 12 22 l25 21 -23 -8 c-22 -6 -23 -5 -11 17
l12 23 -24 -20 c-13 -11 -18 -13 -11 -5 14 16 16 34 3 25 -5 -3 -13 0 -17 6
-4 7 -3 9 4 5 6 -3 13 -2 16 3 4 5 -4 11 -16 13 -18 2 -23 9 -21 31 1 15 -2
27 -7 27 -8 0 -26 41 -21 48 2 2 -5 15 -14 29 -9 14 -12 22 -6 19 6 -4 11 -3
11 2 0 6 -6 12 -14 15 -9 4 -12 14 -9 26 3 13 1 21 -7 21 -9 0 -9 4 1 17 12
14 12 16 0 8 -11 -6 -13 -4 -8 8 3 9 1 19 -5 23 -7 5 -8 2 -3 -6 5 -9 4 -11
-4 -6 -9 6 -9 11 0 22 7 9 8 14 3 13 -28 -5 -35 1 -23 23 10 18 9 20 -6 14
-15 -5 -16 -4 -5 9 15 18 0 20 -20 3 -12 -11 -12 -10 -1 5 7 9 10 17 6 17 -4
0 -2 7 5 16 8 8 9 14 4 13 -21 -4 -28 2 -14 11 13 8 12 10 -4 10 -13 0 -17 5
-13 19 3 14 1 18 -9 14 -10 -4 -14 3 -15 23 -1 16 -1 33 0 37 1 5 -9 6 -21 2
-18 -5 -20 -4 -8 4 10 7 11 11 3 11 -7 0 -13 5 -13 11 0 5 5 7 10 4 6 -3 10
-1 10 4 0 10 -12 15 -30 13 -3 0 -7 9 -7 21 -2 20 -1 20 8 5 6 -10 15 -18 22
-18 8 0 8 3 -1 9 -7 4 -14 14 -15 22 -2 8 -6 20 -11 28 -5 8 -3 16 5 22 8 5 9
9 4 9 -6 0 -17 -6 -24 -12 -11 -10 -13 -10 -7 0 4 6 2 12 -3 12 -6 0 -11 4
-11 10 0 5 8 7 18 4 15 -5 15 -4 -1 6 -14 9 -17 19 -13 38 5 20 4 23 -4 12 -8
-12 -10 -11 -10 8 0 12 -5 22 -10 22 -6 0 -5 6 2 14 7 8 17 11 22 8 5 -3 6 0
2 7 -6 9 -11 9 -21 1 -9 -8 -14 -6 -19 5 -4 11 -2 14 7 10 6 -4 3 1 -7 9 -12
9 -14 16 -7 16 9 0 8 4 -3 15 -8 9 -13 22 -10 30 4 8 1 15 -5 15 -6 0 -11 5
-11 11 0 5 5 7 11 3 6 -3 4 5 -5 18 -9 14 -13 28 -9 31 3 4 1 7 -7 7 -10 0
-10 3 0 15 12 14 7 20 -14 16 -5 -1 -4 4 3 12 9 12 8 16 -4 21 -9 3 -14 10
-10 15 3 5 0 13 -7 17 -8 5 -6 10 8 15 18 7 17 8 -3 8 -16 1 -21 6 -17 16 4 8
11 12 17 8 6 -3 7 -1 3 6 -4 6 -12 9 -17 6 -5 -4 -9 3 -9 15 0 14 4 19 13 15
6 -4 4 0 -6 8 -10 9 -18 18 -17 22 1 4 -2 10 -6 13 -4 4 -4 2 0 -5 3 -6 1 -15
-6 -19 -7 -4 -10 -4 -6 1 4 4 3 14 -3 21 -7 8 -7 14 1 19 8 5 5 12 -7 22 -11
9 -12 12 -3 8 10 -4 9 -2 -2 8 -19 15 -25 32 -8 22 6 -3 10 -1 10 4 0 6 -5 11
-11 11 -5 0 -7 6 -3 13 5 8 2 7 -9 -2 -16 -13 -17 -12 -8 12 9 22 7 28 -8 36
-10 6 -21 8 -24 5 -3 -3 -3 3 0 15 3 12 1 21 -6 21 -6 0 -11 9 -11 20 0 11 -4
20 -10 20 -5 0 -10 9 -10 19 0 10 -7 21 -15 24 -8 4 -12 15 -10 27 2 11 0 18
-6 15 -8 -6 -13 8 -10 28 0 4 -4 7 -9 7 -6 0 -10 9 -10 20 0 11 -4 20 -9 20
-5 0 -12 12 -16 28 -3 15 -14 36 -23 46 -9 11 -11 16 -4 12 7 -4 4 7 -7 25
-11 18 -18 36 -15 41 3 5 0 7 -8 6 -7 -2 -12 3 -11 10 2 6 -5 12 -15 13 -12 0
-13 2 -3 6 11 4 8 10 -10 25 -13 11 -18 17 -11 13 6 -3 12 -1 12 4 0 6 -7 11
-15 11 -9 0 -12 6 -8 17 4 9 2 14 -3 11 -5 -3 -14 0 -21 7 -10 11 -10 15 0 18
9 4 9 6 -1 6 -7 1 -10 5 -7 11 3 6 -1 7 -9 4 -12 -5 -16 0 -16 20 0 14 -4 25
-9 23 -5 -1 -9 2 -10 6 0 4 -19 26 -41 47 -23 22 -38 40 -34 40 4 0 -13 21
-39 46 -26 25 -47 50 -47 55 0 5 -3 8 -8 7 -4 -2 -21 12 -38 30 -17 17 -36 32
-43 32 -6 0 -11 5 -11 10 0 6 -8 10 -17 10 -19 1 -56 24 -48 31 2 3 -8 6 -23
7 -15 1 -28 7 -30 12 -2 6 -10 10 -18 10 -9 0 -12 5 -8 12 5 7 3 8 -5 4 -7 -5
-18 0 -27 10 -13 18 -14 18 -8 -1 5 -19 5 -19 -9 -3 -8 10 -17 15 -20 11 -4
-3 -7 0 -7 8 0 11 -2 11 -10 -1 -8 -13 -10 -12 -10 4 0 11 -3 16 -7 13 -3 -4
-16 1 -27 10 -20 17 -20 17 -7 0 12 -15 12 -17 -3 -11 -9 3 -16 10 -16 16 0 5
-5 6 -10 3 -8 -5 -7 -12 2 -23 11 -13 9 -13 -13 1 -14 10 -29 14 -32 10 -11
-10 -8 12 3 25 7 9 7 9 -2 2 -18 -15 -71 -13 -62 3 5 8 2 8 -9 -2 -16 -12 -22
-8 -18 12 1 5 -3 6 -9 2 -6 -3 -8 -11 -5 -16 4 -5 -1 -9 -10 -9 -9 0 -14 4
-11 9 3 5 -1 11 -9 15 -8 3 -14 2 -14 -2z m-1096 -1432 c-3 -5 -12 -10 -18
-10 -7 0 -6 4 3 10 19 12 23 12 15 0z m-188 -705 c0 -8 -4 -12 -9 -9 -5 3 -6
10 -3 15 9 13 12 11 12 -6z m-17 -129 c0 -3 -4 -8 -10 -11 -5 -3 -10 -1 -10 4
0 6 5 11 10 11 6 0 10 -2 10 -4z m2987 -281 c0 -8 -4 -15 -9 -15 -10 0 -11 14
-1 23 9 10 10 9 10 -8z"/>
<path d="M3689 3183 c-13 -16 -12 -17 4 -4 16 13 21 21 13 21 -2 0 -10 -8 -17
-17z"/>
<path d="M1355 3130 c-3 -5 -1 -10 4 -10 6 0 11 5 11 10 0 6 -2 10 -4 10 -3 0
-8 -4 -11 -10z"/>
<path d="M1301 2945 c0 -5 3 -15 7 -22 5 -9 12 -6 21 10 13 20 13 21 -1 9 -13
-10 -17 -10 -21 0 -3 7 -6 9 -6 3z"/>
<path d="M1257 2739 c7 -7 15 -10 18 -7 3 3 -2 9 -12 12 -14 6 -15 5 -6 -5z"/>
<path d="M1144 2342 c-1 -18 4 -29 13 -29 16 0 17 18 1 40 -12 15 -13 14 -14
-11z"/>
<path d="M4035 2231 c-6 -11 13 -26 22 -17 4 3 1 6 -6 6 -7 0 -9 5 -6 10 3 6
4 10 1 10 -3 0 -7 -4 -11 -9z"/>
<path d="M4073 2188 c4 -11 0 -21 -11 -27 -15 -9 -14 -10 5 -8 15 1 20 6 17
20 -2 11 -6 22 -10 26 -4 3 -4 -2 -1 -11z"/>
<path d="M4835 311 c-3 -5 -2 -12 3 -15 5 -3 9 1 9 9 0 17 -3 19 -12 6z"/>
</g>
</svg>
